<svg width="102" height="45" viewBox="0 0 102 45" fill="none" xmlns="http://www.w3.org/2000/svg">
<path d="M11.064 21.28H7.992V34H0.12V0.735999H11.016C15.56 0.735999 18.968 1.568 21.24 3.232C23.544 4.896 24.696 7.44 24.696 10.864C24.696 13.008 24.184 14.8 23.16 16.24C22.136 17.648 20.52 18.848 18.312 19.84L26.76 34H17.88L11.064 21.28ZM7.992 15.856H11.304C13.064 15.856 14.376 15.456 15.24 14.656C16.136 13.856 16.584 12.592 16.584 10.864C16.584 9.264 16.104 8.096 15.144 7.36C14.216 6.624 12.776 6.256 10.824 6.256H7.992V15.856ZM43.665 34.048C42.641 37.344 40.961 39.872 38.625 41.632C36.321 43.424 33.217 44.432 29.313 44.656L28.497 39.328C30.929 39.008 32.721 38.464 33.873 37.696C35.057 36.928 36.001 35.696 36.705 34H34.113L26.337 8.512H34.401L38.961 29.152L43.953 8.512H51.777L43.665 34.048ZM73.6226 26.608C73.6226 27.568 73.7506 28.272 74.0066 28.72C74.2946 29.168 74.7426 29.504 75.3506 29.728L73.7666 34.672C72.1986 34.544 70.9186 34.208 69.9266 33.664C68.9346 33.088 68.1666 32.192 67.6226 30.976C65.9586 33.536 63.3986 34.816 59.9426 34.816C57.4146 34.816 55.3986 34.08 53.8946 32.608C52.3906 31.136 51.6386 29.216 51.6386 26.848C51.6386 24.064 52.6626 21.936 54.7106 20.464C56.7586 18.992 59.7186 18.256 63.5906 18.256H66.1826V17.152C66.1826 15.648 65.8626 14.624 65.2226 14.08C64.5826 13.504 63.4626 13.216 61.8626 13.216C61.0306 13.216 60.0226 13.344 58.8386 13.6C57.6546 13.824 56.4386 14.144 55.1906 14.56L53.4626 9.568C55.0626 8.96 56.6946 8.496 58.3586 8.176C60.0546 7.856 61.6226 7.696 63.0626 7.696C66.7106 7.696 69.3826 8.448 71.0786 9.952C72.7746 11.456 73.6226 13.712 73.6226 16.72V26.608ZM62.1506 29.392C63.8786 29.392 65.2226 28.576 66.1826 26.944V22.432H64.3106C62.5826 22.432 61.2866 22.736 60.4226 23.344C59.5906 23.952 59.1746 24.896 59.1746 26.176C59.1746 27.2 59.4306 28 59.9426 28.576C60.4866 29.12 61.2226 29.392 62.1506 29.392ZM94.5915 7.696C96.7995 7.696 98.5275 8.368 99.7755 9.712C101.024 11.056 101.648 12.944 101.648 15.376V34H94.0635V16.672C94.0635 15.392 93.8555 14.512 93.4395 14.032C93.0555 13.52 92.4635 13.264 91.6635 13.264C90.1275 13.264 88.6555 14.368 87.2475 16.576V34H79.6635V8.512H86.2875L86.8155 11.536C87.9035 10.256 89.0715 9.296 90.3195 8.656C91.5995 8.016 93.0235 7.696 94.5915 7.696Z" fill="black"/>
</svg>
